<svg xmlns="http://www.w3.org/2000/svg" xmlns:xlink="http://www.w3.org/1999/xlink" x="0" y="0" version="1.1" viewBox="0 0 443.4 200.7" xml:space="preserve" style="enable-background:new 0 0 443.4 200.7"><style type="text/css">.st0{display:none}.st1{fill:#4c7938}.st1,.st2{display:inline}.st3{fill:#4c7938}.st4{fill:none}.st5{fill:#010101}</style><g id="Layer_1" class="st0"><rect width="9.5" height="9.5" class="st1"/><rect width="9.5" height="9.5" x="13.3" class="st2"/></g><g id="Layer_2"><g><path d="M240.7,188.2c-111.1-2.5-200.4-38.9-199.5-81.3c0-1.3,0.1-2.5,0.3-3.8c-8.6,8.4-13.3,17.5-13.1,26.8 c0.7,41.2,94.2,72.8,208.8,70.7c114.6-2.1,206.9-37.2,206.2-78.3c0-0.9-0.1-1.7-0.2-2.6C437.2,160.2,348.5,190.6,240.7,188.2z" class="st3"/><g><path d="M110.2,37.6c0,4.1-3,7.3-7,7.9v0.2c4,0.7,7,3.8,7,7.9v20.5c0,10.5-5.7,16.1-16.2,16.1H67.2c-1.1,0-1.8-0.7-1.8-1.8V2.7 c0-1.2,0.7-1.8,1.8-1.8H94c10.5,0,16.2,5.6,16.2,16.1V37.6z M95.3,20.1c0-2.9-1.5-4.5-4.5-4.5H80.7v22.5h10.2 c2.9,0,4.5-1.6,4.5-4.4V20.1z M95.3,57.4c0-2.9-1.5-4.5-4.5-4.5H80.7v22.5h10.2c2.9,0,4.5-1.5,4.5-4.5V57.4z"/><path d="M171.5,13.9c0,1.1-0.4,1.9-1.8,1.9h-27.9v22.3h21.3c1.1,0,1.8,0.7,1.8,1.9v11.1c0,1.2-0.7,1.9-1.8,1.9h-21.3v22.5h27.9 c1.3,0,1.8,0.6,1.8,1.8v11.2c0,1.1-0.4,1.8-1.8,1.8h-41.1c-1,0-1.7-0.7-1.7-1.8V2.7c0-1.1,0.7-1.8,1.7-1.8h41.1 c1.3,0,1.8,0.7,1.8,1.8V13.9z"/><path d="M201.6,0.9c1.1,0,1.8,0.7,1.8,1.8v85.7c0,1.1-0.7,1.8-1.8,1.8H190c-1.2,0-1.8-0.7-1.8-1.8V2.7 c0-1.1,0.6-1.8,1.8-1.8H201.6z" class="st4"/><path d="M260.8,0.9c1.2,0,1.8,0.7,1.8,1.8v11.2c0,1.1-0.6,1.8-1.8,1.8h-12.9v72.8c0,1.2-0.6,1.8-1.8,1.8h-11.6 c-1.1,0-1.8-0.6-1.8-1.8V15.7h-12.9c-1.1,0-1.8-0.7-1.8-1.8V2.7c0-1.1,0.7-1.8,1.8-1.8H260.8z"/><path d="M321.7,0.9c1.8,0,2.2,1.1,1.7,2.7l-27.8,71.9h24.6c1.1,0,1.8,0.6,1.8,1.8v11.1c0,1.1-0.7,1.8-1.8,1.9h-43.4 c-1.8,0-2.3-1.1-1.7-2.7l27.8-71.8h-23.1c-1.1,0-1.8-0.7-1.8-1.8V2.8c0-1.2,0.7-1.8,1.8-1.9H321.7z"/><path d="M380.4,13.9c0,1.1-0.4,1.9-1.8,1.9h-27.9v22.3h21.3c1.1,0,1.8,0.7,1.8,1.9v11.1c0,1.2-0.7,1.9-1.8,1.9h-21.3v22.5h27.9 c1.3,0,1.8,0.6,1.8,1.8v11.2c0,1.1-0.4,1.8-1.8,1.8h-41.1c-1,0-1.7-0.7-1.7-1.8V2.7c0-1.1,0.7-1.8,1.7-1.8h41.1 c1.3,0,1.8,0.7,1.8,1.8V13.9z"/><path d="M412.4,75.5h26.6c1.2,0,1.8,0.7,1.8,1.8v11.2c0,1.2-0.6,1.8-1.8,1.8h-40c-1.1,0-1.8-0.6-1.8-1.8V2.7 c0-1.1,0.7-1.8,1.8-1.8h11.6c1.2,0,1.8,0.7,1.8,1.8V75.5z"/></g><path d="M185.2,1.7v1.9c0,0.1,0,0.1,0,0.2l5.8,13.8c0.1,0.3,0.1,0.6,0.1,0.9v65.4c0,0.6,0.1,1.2,0.4,1.8l2.8,6.7 c0.2,0.6,1.1,0.6,1.3,0l2.8-6.7c0.2-0.6,0.4-1.2,0.4-1.8V18.5c0.1-0.3,0.1-0.6,0.1-0.9l5.8-13.8c0-0.1,0-0.1,0-0.2V1.7 c0-0.4-0.3-0.7-0.7-0.7h-18.3C185.5,0.9,185.2,1.3,185.2,1.7z" class="st3"/><g><path d="M164.5,131.3c-0.8,0-1.4-0.6-1.4-1.3c0-0.8,0.6-1.4,1.4-1.4h12.1h0.2c0.7,0.1,1.2,0.7,1.2,1.4v13.4v0.2 c-0.1,0.4-0.2,0.8-0.5,1c-3.5,2.7-7.8,4.3-12.6,4.3c-11.2-0.1-20.3-8.8-20.3-19.9c0-10.9,9.1-19.8,20.3-19.8 c4.9,0,9.2,1.7,12.7,4.4c0.5,0.4,0.7,1.3,0.2,1.9c-0.4,0.6-1.3,0.7-2,0.2c-2.8-2.3-6.7-3.8-10.9-3.8c-9.8,0-17.6,7.6-17.6,17 c0,9.5,7.8,17.1,17.6,17.1c3.8,0,7.4-1.2,10.3-3.4v-11.5H164.5z"/><path d="M231.2,109.2c10.4,0,18.6,8.9,18.7,19.8c-0.1,10.9-8.3,19.8-18.7,19.8c-10.5,0-18.8-8.9-18.9-19.8 C212.4,118.1,220.6,109.2,231.2,109.2z M231.2,146.1c8.6,0,15.9-7.5,15.9-17.1c-0.1-9.7-7.3-17-15.9-17c-8.9,0-16.1,7.4-16.1,17 C215,138.6,222.3,146.1,231.2,146.1z"/><path d="M285,148.9h-0.1c-0.7,0-1.3-0.6-1.3-1.3v-36.4c0-0.7,0.6-1.3,1.3-1.3c0.8,0,1.4,0.6,1.4,1.3v35H305 c0.8,0,1.4,0.6,1.4,1.4c0,0.7-0.6,1.3-1.4,1.3H285z"/><path d="M337.3,111.1c0-0.7,0.6-1.3,1.3-1.3h0.2h20c0.7,0,1.3,0.6,1.3,1.3c0,0.8-0.6,1.4-1.3,1.4H340V128h16.4 c0.8,0,1.4,0.6,1.4,1.4c0,0.7-0.6,1.3-1.4,1.3H340v16.8c0,0.7-0.6,1.3-1.4,1.3c-0.7,0-1.3-0.6-1.3-1.3V111.1z"/></g><rect width="2.6" height="85.7" x="44.9" y="4.4" class="st5"/><ellipse cx="46.2" cy="90.4" class="st5" rx="10.1" ry="3.3"/><polygon points="41.2 34.4 0 20 41.2 5.6" class="st3"/></g></g></svg>